<mxfile host="app.diagrams.net" modified="2023-11-16T07:53:48.366Z" agent="Mozilla/5.0 (Windows NT 10.0; Win64; x64; rv:109.0) Gecko/20100101 Firefox/119.0" etag="HV_lqWWVYU3LiygGeFBO" version="22.1.1" type="device">
  <diagram name="Seite-1" id="pyM7yms2r--G8iYjw6EM">
    <mxGraphModel dx="710" dy="377" grid="1" gridSize="10" guides="1" tooltips="1" connect="1" arrows="1" fold="1" page="1" pageScale="1" pageWidth="827" pageHeight="1169" math="0" shadow="0">
      <root>
        <mxCell id="0" />
        <mxCell id="1" parent="0" />
        <mxCell id="gvcYzcC9IL7iFnvRlr-k-1" value="Katze" style="html=1;fontStyle=1" vertex="1" parent="1">
          <mxGeometry x="40" y="40" width="110" height="30" as="geometry" />
        </mxCell>
        <mxCell id="gvcYzcC9IL7iFnvRlr-k-2" value="pÃ¼nktchen : Katze" style="html=1;fontStyle=4" vertex="1" parent="1">
          <mxGeometry x="250" y="40" width="140" height="30" as="geometry" />
        </mxCell>
        <mxCell id="gvcYzcC9IL7iFnvRlr-k-3" value="" style="endArrow=none;html=1;rounded=0;strokeColor=#006666;strokeWidth=3;" edge="1" parent="1">
          <mxGeometry width="50" height="50" relative="1" as="geometry">
            <mxPoint x="200" y="90" as="sourcePoint" />
            <mxPoint x="200" y="20" as="targetPoint" />
          </mxGeometry>
        </mxCell>
      </root>
    </mxGraphModel>
  </diagram>
</mxfile>
